<svg xmlns="http://www.w3.org/2000/svg" viewBox="0 0 464.37 108"><defs><style>.cls-1{fill:#f3941f;}.cls-2{fill:#9d4923;}.cls-3{fill:#9d4823;}</style></defs><g id="Layer_2" data-name="Layer 2"><g id="Layer_1-2" data-name="Layer 1"><path class="cls-1" d="M28.54,60c4.2,1.11,8.45,2,12.73,2.72,1.55.26,3.11.45,4.67.69,2.19.34,4.37.72,6.55,1,2.57.38,5.15.66,7.7,1.11s4.83.82,7.24,1.22c1.95.32,3.89.72,5.84,1.1,1.74.34,3.47.76,5.21,1.13.66.14.85,0,.87-.7,0-1,0-1.92,0-2.88-.1-2.36-.35-4.71-.37-7.08,0-2.12-.09-4.25-.15-6.38,0-1.25-.11-2.5-.17-3.75,0-1-.13-1.1-1-1.36s-1.8-.48-2.71-.69c-2.21-.51-4.43-1-6.64-1.51-3.49-.82-7-1.68-10.46-2.5S50.6,40.53,47,39.7c-2.19-.5-4.37-1-6.55-1.55s-4.55-1-6.82-1.55c-3.51-.82-7-1.68-10.54-2.51L12.54,31.62,1.9,29.14C1,28.93.78,29.1.81,30A34.82,34.82,0,0,0,2.5,39.62,26.09,26.09,0,0,0,9,50.15a31.27,31.27,0,0,0,7.9,5.57A57.9,57.9,0,0,0,28.54,60Z"/><path class="cls-2" d="M118,39.52a5.58,5.58,0,0,0,.69-.13l4.07-1,6.72-1.59c2.24-.52,4.5-1,6.74-1.53l10.54-2.51c3.48-.82,7-1.62,10.46-2.43,2.87-.67,5.72-1.4,8.6-2s5.84-1.36,8.76-2,5.66-1.38,8.51-2c3.62-.78,7.2-1.72,10.81-2.51l.42-.12a.93.93,0,0,0,.7-.9l0-.79c.07-2.12.12-4.25.22-6.38.18-4.19.33-8.38.28-12.58,0-.94-.27-1.16-1.17-.95L187,1.83,178.2,3.9,167.73,6.35l-8.33,2c-2.3.53-4.61,1-6.91,1.57L143.57,12c-2.78.65-5.57,1.27-8.35,1.92l-10.8,2.55c-1.85.44-3.69.85-5.53,1.3-.89.22-1,.32-1,1.26-.17,2.56-.3,5.12-.32,7.69v2.62h-.12l-.27,9.17c0,.12,0,.24,0,.35C117.25,39.44,117.43,39.58,118,39.52Z"/><path class="cls-1" d="M116.17,68.54c.07.47.24.61.7.55a4.7,4.7,0,0,0,.51-.12c2.39-.51,4.77-1.08,7.18-1.52,4.76-.85,9.52-1.67,14.31-2.36,4.21-.6,8.41-1.27,12.62-1.89,3.92-.58,7.8-1.41,11.67-2.23a74.94,74.94,0,0,0,7.5-2.06,44.2,44.2,0,0,0,12.12-5.74A26.29,26.29,0,0,0,193,39.4a30.15,30.15,0,0,0,1.15-4.75,32,32,0,0,0,.48-4.69c0-.81-.24-1-1-.83-2.07.47-4.14,1-6.21,1.45-3,.7-6,1.41-8.93,2.1l-8.18,1.9-9.1,2.15c-2.72.64-5.46,1.23-8.17,1.9-2.91.73-5.85,1.33-8.76,2.07-3.45.86-6.92,1.61-10.38,2.42-3.69.86-7.38,1.71-11.07,2.58L117.66,47a1,1,0,0,0-.83,1c0,1-.12,1.92-.14,2.89-.09,4.45-.25,8.91-.53,13.36v3.94C116.16,68.31,116.16,68.42,116.17,68.54Z"/><path class="cls-3" d="M.12,10c.14,3.46.23,6.93.38,10.39.05,1.07.18,1.24,1.23,1.48,1.56.36,3.13.68,4.68,1.09,2.93.77,5.91,1.32,8.84,2.08,3.13.82,6.3,1.44,9.44,2.22s6.42,1.46,9.62,2.24c3.59.88,7.2,1.68,10.8,2.52,2.22.51,4.42,1,6.64,1.56l8.76,2,8.85,2.08c1.78.41,3.58.81,5.36,1.23.88.2,1.76.43,2.64.61s.93,0,1-.79c0-.21,0-.41,0-.62,0-1-.07-2.09-.11-3.14,0-3.12-.26-6.23-.28-9.35,0-2.21-.19-4.42-.3-6.63,0-.82-.14-.94-.92-1.16s-1.47-.37-2.21-.54l-8.85-2.07L59.1,13.67l-9-2.12c-2.18-.51-4.39-1-6.56-1.51C40,9.13,36.37,8.4,32.81,7.52c-2.75-.68-5.51-1.28-8.26-1.92-3-.7-5.95-1.41-8.93-2.1C13.4,3,11.18,2.49,9,2L1.16.08A1.59,1.59,0,0,0,.73,0C.22,0,.06.16,0,.69a5.4,5.4,0,0,0,0,.7C0,4.24,0,7.09.12,10Z"/><path class="cls-3" d="M86.78,95.76c-.23-4.05-.34-8.1-.55-12.14a4.39,4.39,0,0,0-.49-1.84C83.85,78,82,74.27,80.1,70.52c-.14-.28-.18-.82-.61-.71s-.25.59-.24.92c.12,3.26.25,6.53.4,9.79.2,4.51.43,9,.63,13.53a3.88,3.88,0,0,0,.4,1.68c1.93,3.83,3.84,7.66,5.76,11.5a1.84,1.84,0,0,0,.43.65c.24.21.44.14.49-.16a1.55,1.55,0,0,0,0-.29C87,103.51,87,99.63,86.78,95.76Z"/><path class="cls-3" d="M116,69.69c-.39-.1-.46.37-.59.64-1.64,3.51-3.39,7-5.18,10.41a9.81,9.81,0,0,0-1.1,4.51c0,.41,0,.82,0,1.23-.12,2.88-.19,5.76-.38,8.64-.26,3.92-.26,7.86-.62,11.78a6.77,6.77,0,0,0,0,.78.29.29,0,0,0,.17.28.27.27,0,0,0,.31-.11,3.56,3.56,0,0,0,.49-.82l5.64-11.25a3.78,3.78,0,0,0,.47-1.67c0-2.59.22-5.18.34-7.77.22-4.59.39-9.19.57-13.79h0c0-.67.09-1.34.1-2C116.27,70.24,116.41,69.79,116,69.69Z"/><path class="cls-1" d="M300.7,46.35a11.81,11.81,0,0,0-3.26-1.66c-1.31-.47-2.64-.92-4-1.39a7.19,7.19,0,0,1-2-1.06,2.64,2.64,0,0,1-1-2.8,2.45,2.45,0,0,1,1.88-1.87,6.85,6.85,0,0,1,3.54-.08,13.08,13.08,0,0,1,4.39,1.89c.61.4.64.38.93-.3.42-1,.82-1.93,1.22-2.9.28-.7.26-.78-.4-1.2a13.79,13.79,0,0,0-10.38-2,7.88,7.88,0,0,0-4.4,2.36c-1.89,2-2.09,4.48-1.67,7a6.51,6.51,0,0,0,3.52,4.65,23.27,23.27,0,0,0,3.79,1.57c1,.33,1.93.65,2.88,1a5.59,5.59,0,0,1,2,1.36,2.91,2.91,0,0,1-.85,4.47,5.8,5.8,0,0,1-1.15.4,8.6,8.6,0,0,1-5.29-.64,13.26,13.26,0,0,1-3.75-2.38c-.55-.48-.63-.46-.94.18-.4.84-.78,1.69-1.17,2.54s-.42,1,.35,1.63a13.29,13.29,0,0,0,9.06,3.32,12.84,12.84,0,0,0,2.7-.22,9.16,9.16,0,0,0,4.89-2.54A7.61,7.61,0,0,0,303.59,52,7,7,0,0,0,300.7,46.35Z"/><path class="cls-1" d="M271.52,47.7c-.74-1-.8-.9,0-2l8-11.6c.17-.25.43-.48.4-.82a1.67,1.67,0,0,0-.9-.1c-1.22,0-2.45,0-3.67,0a1.71,1.71,0,0,0-1.7.92c-2,3.19-4.14,6.34-6.17,9.54a2,2,0,0,1-2,1.08c-1.59-.06-1.59,0-1.59-1.6,0-3,0-6,0-9,0-.82-.11-.91-.91-.92h-2.8c-1.24,0-1.25,0-1.25,1.28V58.89c0,.21,0,.41,0,.62a.54.54,0,0,0,.59.6h3.76a.54.54,0,0,0,.59-.6c0-.24,0-.47,0-.7,0-2.92,0-5.83,0-8.75,0-.26,0-.52,0-.78a.58.58,0,0,1,.59-.63c.44,0,.88,0,1.31,0a1.48,1.48,0,0,1,1.45.77c.86,1.31,1.77,2.59,2.67,3.89,1.37,2,2.76,4,4.1,6a1.68,1.68,0,0,0,1.65.88c1.25-.06,2.51,0,3.76,0a1.51,1.51,0,0,0,.89-.14c-.24-.36-.45-.67-.67-1C276.92,55.24,274.21,51.47,271.52,47.7Z"/><path class="cls-1" d="M328,45q-2-5.33-3.92-10.66c-.42-1.15-.42-1.15-1.6-1.16h-4.37c-1.11,0-1.12,0-1.5,1l-6,16.32q-1.63,4.43-3.26,8.86c-.25.7-.21.76.51.76h3.94c.92,0,1,0,1.27-.88q.79-2.13,1.56-4.26c.47-1.29.47-1.29,1.88-1.29,1.25,0,2.51,0,3.76,0h0c1.43,0,2.86,0,4.28,0,.94,0,1,.06,1.33.94.58,1.56,1.14,3.12,1.72,4.68.29.77.33.8,1.14.8,1.19,0,2.39,0,3.58,0s1.25,0,.84-1.14ZM323.07,49q-2.79,0-5.58,0c-.49,0-.56-.13-.47-.6a4.3,4.3,0,0,1,.18-.58l2.69-7.28c.08-.24.13-.52.43-.67a1,1,0,0,1,.42.69q1.35,3.67,2.68,7.37a3,3,0,0,1,.14.42C323.68,48.89,323.6,49,323.07,49Z"/><path class="cls-1" d="M247.05,40.86q-1.26-3.4-2.5-6.81c-.33-.89-.37-.91-1.34-.91h-4.54c-1.12,0-1.13,0-1.51,1l-6,16.24c-1.08,2.92-2.16,5.85-3.23,8.77-.34.91-.32.94.62.94,1.25,0,2.5,0,3.76,0,.95,0,1,0,1.31-.94.56-1.5,1.1-3,1.65-4.51.34-.92.4-1,1.4-1,2.8,0,5.59,0,8.39,0,.95,0,1,0,1.34.93.55,1.5,1.09,3,1.65,4.52.36,1,.36,1,1.37,1s2.27,0,3.41,0,1.26,0,.82-1.22ZM243.77,49h-.18c-1.8,0-3.6,0-5.41,0-.64,0-.71-.13-.54-.74.09-.33.21-.66.33-1,.82-2.21,1.63-4.41,2.46-6.62.1-.28.12-.64.48-.77.28.13.31.41.4.65q1.37,3.72,2.7,7.46a4.16,4.16,0,0,1,.16.5C244.24,48.85,244.1,49,243.77,49Z"/><path class="cls-1" d="M359.47,33.14c-1.14,0-2.28,0-3.41,0-.64,0-.75.14-.78.78,0,.26,0,.53,0,.79V51.84c0,.29,0,.59,0,.88s0,.37-.23.39c-.31-.2-.39-.56-.54-.87q-4.51-9.18-9-18.36a1.15,1.15,0,0,0-1.21-.76c-1.64,0-3.27,0-4.9,0-1.24,0-1.25,0-1.25,1.28V55.67c0,1.19,0,2.38,0,3.58,0,.75.12.86.86.87.94,0,1.87,0,2.8,0,1.29,0,1.29,0,1.29-1.32q0-8.79,0-17.57a2.12,2.12,0,0,1,.14-1.15,1.28,1.28,0,0,1,.58.75q1,2,2,4.08,3.53,7.17,7,14.37a1.34,1.34,0,0,0,1.42.86c1.55,0,3.09,0,4.64,0,1.34,0,1.34,0,1.34-1.37V34.46c0-.18,0-.35,0-.53C360.2,33.29,360.09,33.15,359.47,33.14Z"/><path class="cls-1" d="M405.39,42.84q-1.61-4.4-3.22-8.78c-.33-.89-.38-.92-1.33-.92h-2.36c-.87,0-1.75,0-2.62,0a.82.82,0,0,0-.92.62c-.05.17-.12.33-.18.49q-3.33,9-6.64,18c-.85,2.29-1.7,4.59-2.54,6.88-.34.94-.33.95.7.95q1.88,0,3.75,0c.85,0,.9,0,1.2-.85.56-1.5,1.11-3,1.66-4.51.38-1,.41-1.06,1.51-1.06q4.11,0,8.22,0c1.05,0,1.09,0,1.45,1,.56,1.5,1.1,3,1.66,4.51.33.9.35.9,1.33.9,1.14,0,2.27,0,3.41,0s1.27,0,.83-1.21ZM401.32,49c-.32,0-.64,0-1,0-1.45,0-2.91,0-4.36,0-.9,0-1-.11-.67-1,.77-2.14,1.56-4.26,2.34-6.39.19-.52.39-1,.6-1.54a1,1,0,0,1,.21-.25c.35.15.38.47.47.73q1.35,3.69,2.68,7.38c.05.13.1.27.14.41C401.87,48.88,401.79,49,401.32,49Z"/><path class="cls-1" d="M435.34,59c-1-2.93-1.94-5.86-2.87-8.8a4.55,4.55,0,0,0-3-3.36s0,0-.09-.13c.24-.31.58-.34.87-.46a5.41,5.41,0,0,0,3.65-5.58c0-.26,0-.53,0-.79a6.47,6.47,0,0,0-2.76-5,8,8,0,0,0-2.71-1.18,18.73,18.73,0,0,0-4.41-.53h-6.47c-1.45,0-1.45,0-1.45,1.47v24c0,.2,0,.41,0,.61,0,.72.16.85.9.86,1.11,0,2.22,0,3.32,0,.88,0,1-.09,1-.95,0-1.72,0-3.43,0-5.15,0-1.37,0-2.74,0-4.11,0-.8.11-.9.91-.93s1.34,0,2,0a2.75,2.75,0,0,1,2.52,1.59,7.82,7.82,0,0,1,.58,1.55c.75,2.36,1.48,4.73,2.23,7.09.28.89.32.91,1.22.91h2.8c.49,0,1,0,1.48,0s.55-.16.46-.62A4.83,4.83,0,0,0,435.34,59Zm-9.21-14.64a13.19,13.19,0,0,1-4.34.3c-.42,0-.51-.32-.51-.66V40.93h0c0-1,0-1.93,0-2.89,0-.72.1-.81.82-.82a17.83,17.83,0,0,1,3.65.17,3.22,3.22,0,0,1,2.81,3.2A3.33,3.33,0,0,1,426.13,44.35Z"/><path class="cls-1" d="M457.38,40.53c-.79-2.13-1.57-4.27-2.35-6.4-.36-1-.38-1-1.46-1h-4.45c-1.12,0-1.13,0-1.51,1q-3,8.25-6.07,16.49l-3.16,8.61c-.29.8-.26.85.57.85,1.22,0,2.44,0,3.67,0s1.14,0,1.55-1.11c.52-1.42,1-2.84,1.56-4.26.37-1,.41-1,1.43-1q4.18,0,8.39,0c.94,0,1,0,1.33.94.57,1.53,1.12,3.06,1.68,4.59.33.88.35.89,1.26.89h3.23c1.52,0,1.53,0,1-1.4ZM454.08,49c-1.83,0-3.66,0-5.5,0-.58,0-.68-.14-.5-.7.34-1,.71-2,1.08-3,.57-1.55,1.15-3.11,1.73-4.66.1-.26.14-.57.44-.72.34.11.35.44.45.7q1.35,3.68,2.68,7.37c0,.11.08.22.11.33C454.72,48.89,454.64,49,454.08,49Z"/><path class="cls-1" d="M385.41,34c0-.73-.12-.82-.89-.84H365.63c-1,0-1.06.07-1.07,1q0,1,0,2c0,1,.07,1,1.06,1h5.77c.94,0,1,.08,1,1,0,.21,0,.41,0,.62V53.33c0,2,0,4,0,5.94,0,.72.12.84.8.85,1.2,0,2.39,0,3.59,0,.59,0,.71-.14.76-.72,0-.29,0-.58,0-.87V38.41c0-1.14.06-1.19,1.18-1.2h5.77c.76,0,.87-.12.88-.86S385.42,34.77,385.41,34Z"/></g></g></svg>